<svg xmlns="http://www.w3.org/2000/svg" style="margin:auto;background:#7aceff;display:block;z-index:1;position:relative" width="1440" height="741" preserveAspectRatio="xMidYMid">
  <g transform="translate(-100 151.823)">
    <animateTransform attributeName="transform" type="translate" keyTimes="0;1" values="-100 151.82254110550133;1440 151.82254110550133" dur="66.66666666666667s" repeatCount="indefinite" begin="-48.20273628764037s"/>
    <path d="M46.594 18.478c.435-1.376.653-2.826.653-4.275C47.247 6.377 40.869 0 33.043 0 27.61 0 22.9 3.044 20.507 7.536c-.87-.29-1.884-.435-2.826-.435a9.402 9.402 0 0 0-9.42 9.42c0 .653.073 1.305.217 1.885C3.695 19.13 0 23.333 0 28.333c0 5.58 4.493 10.073 10.073 10.073h34.855c5.58 0 10.072-4.493 10.072-10.073-.073-4.927-3.695-9.058-8.406-9.855z" fill="#bddeff"/>
  </g>
  <g transform="translate(-100 433.836)">
    <animateTransform attributeName="transform" type="translate" keyTimes="0;1" values="-100 433.8359086378974;1440 433.8359086378974" dur="66.66666666666667s" repeatCount="indefinite" begin="-14.687004737467232s"/>
    <path d="M46.594 18.478c.435-1.376.653-2.826.653-4.275C47.247 6.377 40.869 0 33.043 0 27.61 0 22.9 3.044 20.507 7.536c-.87-.29-1.884-.435-2.826-.435a9.402 9.402 0 0 0-9.42 9.42c0 .653.073 1.305.217 1.885C3.695 19.13 0 23.333 0 28.333c0 5.58 4.493 10.073 10.073 10.073h34.855c5.58 0 10.072-4.493 10.072-10.073-.073-4.927-3.695-9.058-8.406-9.855z" fill="#bddeff"/>
  </g>
  <g transform="translate(-100 380.169)">
    <animateTransform attributeName="transform" type="translate" keyTimes="0;1" values="-100 380.16904109616036;1440 380.16904109616036" dur="66.66666666666667s" repeatCount="indefinite" begin="-50.34708109739072s"/>
    <path d="M46.594 18.478c.435-1.376.653-2.826.653-4.275C47.247 6.377 40.869 0 33.043 0 27.61 0 22.9 3.044 20.507 7.536c-.87-.29-1.884-.435-2.826-.435a9.402 9.402 0 0 0-9.42 9.42c0 .653.073 1.305.217 1.885C3.695 19.13 0 23.333 0 28.333c0 5.58 4.493 10.073 10.073 10.073h34.855c5.58 0 10.072-4.493 10.072-10.073-.073-4.927-3.695-9.058-8.406-9.855z" fill="#bddeff"/>
  </g>
  <g transform="translate(-100 337.755)">
    <animateTransform attributeName="transform" type="translate" keyTimes="0;1" values="-100 337.7547917209319;1440 337.7547917209319" dur="66.66666666666667s" repeatCount="indefinite" begin="-2.5014226547684038s"/>
    <path d="M46.594 18.478c.435-1.376.653-2.826.653-4.275C47.247 6.377 40.869 0 33.043 0 27.61 0 22.9 3.044 20.507 7.536c-.87-.29-1.884-.435-2.826-.435a9.402 9.402 0 0 0-9.42 9.42c0 .653.073 1.305.217 1.885C3.695 19.13 0 23.333 0 28.333c0 5.58 4.493 10.073 10.073 10.073h34.855c5.58 0 10.072-4.493 10.072-10.073-.073-4.927-3.695-9.058-8.406-9.855z" fill="#bddeff"/>
  </g>
  <g transform="translate(-100 553.702)">
    <animateTransform attributeName="transform" type="translate" keyTimes="0;1" values="-100 553.701684578531;1440 553.701684578531" dur="66.66666666666667s" repeatCount="indefinite" begin="-26.035643715004635s"/>
    <path d="M46.594 18.478c.435-1.376.653-2.826.653-4.275C47.247 6.377 40.869 0 33.043 0 27.61 0 22.9 3.044 20.507 7.536c-.87-.29-1.884-.435-2.826-.435a9.402 9.402 0 0 0-9.42 9.42c0 .653.073 1.305.217 1.885C3.695 19.13 0 23.333 0 28.333c0 5.58 4.493 10.073 10.073 10.073h34.855c5.58 0 10.072-4.493 10.072-10.073-.073-4.927-3.695-9.058-8.406-9.855z" fill="#bddeff"/>
  </g>
  <g transform="translate(-100 214.58)">
    <animateTransform attributeName="transform" type="translate" keyTimes="0;1" values="-100 214.57918220502597;1440 214.57918220502597" dur="66.66666666666667s" repeatCount="indefinite" begin="-36.326799571443615s"/>
    <path d="M46.594 18.478c.435-1.376.653-2.826.653-4.275C47.247 6.377 40.869 0 33.043 0 27.61 0 22.9 3.044 20.507 7.536c-.87-.29-1.884-.435-2.826-.435a9.402 9.402 0 0 0-9.42 9.42c0 .653.073 1.305.217 1.885C3.695 19.13 0 23.333 0 28.333c0 5.58 4.493 10.073 10.073 10.073h34.855c5.58 0 10.072-4.493 10.072-10.073-.073-4.927-3.695-9.058-8.406-9.855z" fill="#bddeff"/>
  </g>
  <g transform="translate(-100 274.447)">
    <animateTransform attributeName="transform" type="translate" keyTimes="0;1" values="-100 274.4470353500522;1440 274.4470353500522" dur="66.66666666666667s" repeatCount="indefinite" begin="-56.782267296698905s"/>
    <path d="M46.594 18.478c.435-1.376.653-2.826.653-4.275C47.247 6.377 40.869 0 33.043 0 27.61 0 22.9 3.044 20.507 7.536c-.87-.29-1.884-.435-2.826-.435a9.402 9.402 0 0 0-9.42 9.42c0 .653.073 1.305.217 1.885C3.695 19.13 0 23.333 0 28.333c0 5.58 4.493 10.073 10.073 10.073h34.855c5.58 0 10.072-4.493 10.072-10.073-.073-4.927-3.695-9.058-8.406-9.855z" fill="#bddeff"/>
  </g>
  <g transform="translate(-100 476.014)">
    <animateTransform attributeName="transform" type="translate" keyTimes="0;1" values="-100 476.0136810362009;1440 476.0136810362009" dur="66.66666666666667s" repeatCount="indefinite" begin="-61.976834226665005s"/>
    <path d="M46.594 18.478c.435-1.376.653-2.826.653-4.275C47.247 6.377 40.869 0 33.043 0 27.61 0 22.9 3.044 20.507 7.536c-.87-.29-1.884-.435-2.826-.435a9.402 9.402 0 0 0-9.42 9.42c0 .653.073 1.305.217 1.885C3.695 19.13 0 23.333 0 28.333c0 5.58 4.493 10.073 10.073 10.073h34.855c5.58 0 10.072-4.493 10.072-10.073-.073-4.927-3.695-9.058-8.406-9.855z" fill="#bddeff"/>
  </g>
  <g transform="translate(-100 212.548)">
    <animateTransform attributeName="transform" type="translate" keyTimes="0;1" values="-100 212.54829800647656;1440 212.54829800647656" dur="66.66666666666667s" repeatCount="indefinite" begin="-27.702512105233996s"/>
    <path d="M46.594 18.478c.435-1.376.653-2.826.653-4.275C47.247 6.377 40.869 0 33.043 0 27.61 0 22.9 3.044 20.507 7.536c-.87-.29-1.884-.435-2.826-.435a9.402 9.402 0 0 0-9.42 9.42c0 .653.073 1.305.217 1.885C3.695 19.13 0 23.333 0 28.333c0 5.58 4.493 10.073 10.073 10.073h34.855c5.58 0 10.072-4.493 10.072-10.073-.073-4.927-3.695-9.058-8.406-9.855z" fill="#bddeff"/>
  </g>
  <g transform="translate(-100 227.796)">
    <animateTransform attributeName="transform" type="translate" keyTimes="0;1" values="-100 227.79611682223046;1440 227.79611682223046" dur="66.66666666666667s" repeatCount="indefinite" begin="-19.937092123891965s"/>
    <path d="M46.594 18.478c.435-1.376.653-2.826.653-4.275C47.247 6.377 40.869 0 33.043 0 27.61 0 22.9 3.044 20.507 7.536c-.87-.29-1.884-.435-2.826-.435a9.402 9.402 0 0 0-9.42 9.42c0 .653.073 1.305.217 1.885C3.695 19.13 0 23.333 0 28.333c0 5.58 4.493 10.073 10.073 10.073h34.855c5.58 0 10.072-4.493 10.072-10.073-.073-4.927-3.695-9.058-8.406-9.855z" fill="#bddeff"/>
  </g>
  <g transform="translate(-100 351.646)">
    <animateTransform attributeName="transform" type="translate" keyTimes="0;1" values="-100 351.6464477776333;1440 351.6464477776333" dur="66.66666666666667s" repeatCount="indefinite" begin="-13.363553283213216s"/>
    <path d="M46.594 18.478c.435-1.376.653-2.826.653-4.275C47.247 6.377 40.869 0 33.043 0 27.61 0 22.9 3.044 20.507 7.536c-.87-.29-1.884-.435-2.826-.435a9.402 9.402 0 0 0-9.42 9.42c0 .653.073 1.305.217 1.885C3.695 19.13 0 23.333 0 28.333c0 5.58 4.493 10.073 10.073 10.073h34.855c5.58 0 10.072-4.493 10.072-10.073-.073-4.927-3.695-9.058-8.406-9.855z" fill="#bddeff"/>
  </g>
  <g transform="translate(-100 200.943)">
    <animateTransform attributeName="transform" type="translate" keyTimes="0;1" values="-100 200.94328973008209;1440 200.94328973008209" dur="33.333333333333336s" repeatCount="indefinite" begin="-14.589482798817615s"/>
    <path d="M59.302 23.518c.554-1.752.83-3.597.83-5.441C60.132 8.116 52.016 0 42.055 0 35.14 0 29.144 3.874 26.1 9.591c-1.107-.368-2.398-.553-3.596-.553-6.64 0-11.99 5.35-11.99 11.99 0 .83.092 1.66.276 2.398C4.704 24.348 0 29.695 0 36.06c0 7.102 5.718 12.82 12.82 12.82h44.36c7.102 0 12.82-5.718 12.82-12.82-.092-6.27-4.703-11.528-10.698-12.542z" fill="#fff"/>
  </g>
  <g transform="translate(-100 204.753)">
    <animateTransform attributeName="transform" type="translate" keyTimes="0;1" values="-100 204.75263146637545;1440 204.75263146637545" dur="33.333333333333336s" repeatCount="indefinite" begin="-15.873682043459818s"/>
    <path d="M59.302 23.518c.554-1.752.83-3.597.83-5.441C60.132 8.116 52.016 0 42.055 0 35.14 0 29.144 3.874 26.1 9.591c-1.107-.368-2.398-.553-3.596-.553-6.64 0-11.99 5.35-11.99 11.99 0 .83.092 1.66.276 2.398C4.704 24.348 0 29.695 0 36.06c0 7.102 5.718 12.82 12.82 12.82h44.36c7.102 0 12.82-5.718 12.82-12.82-.092-6.27-4.703-11.528-10.698-12.542z" fill="#fff"/>
  </g>
  <g transform="translate(-100 490.308)">
    <animateTransform attributeName="transform" type="translate" keyTimes="0;1" values="-100 490.30750845753425;1440 490.30750845753425" dur="33.333333333333336s" repeatCount="indefinite" begin="-32.93971250463124s"/>
    <path d="M59.302 23.518c.554-1.752.83-3.597.83-5.441C60.132 8.116 52.016 0 42.055 0 35.14 0 29.144 3.874 26.1 9.591c-1.107-.368-2.398-.553-3.596-.553-6.64 0-11.99 5.35-11.99 11.99 0 .83.092 1.66.276 2.398C4.704 24.348 0 29.695 0 36.06c0 7.102 5.718 12.82 12.82 12.82h44.36c7.102 0 12.82-5.718 12.82-12.82-.092-6.27-4.703-11.528-10.698-12.542z" fill="#fff"/>
  </g>
  <g transform="translate(-100 124.423)">
    <animateTransform attributeName="transform" type="translate" keyTimes="0;1" values="-100 124.42256351122914;1440 124.42256351122914" dur="33.333333333333336s" repeatCount="indefinite" begin="-40.585882394457606s"/>
    <path d="M59.302 23.518c.554-1.752.83-3.597.83-5.441C60.132 8.116 52.016 0 42.055 0 35.14 0 29.144 3.874 26.1 9.591c-1.107-.368-2.398-.553-3.596-.553-6.64 0-11.99 5.35-11.99 11.99 0 .83.092 1.66.276 2.398C4.704 24.348 0 29.695 0 36.06c0 7.102 5.718 12.82 12.82 12.82h44.36c7.102 0 12.82-5.718 12.82-12.82-.092-6.27-4.703-11.528-10.698-12.542z" fill="#fff"/>
  </g>
  <g transform="translate(-100 55.85)">
    <animateTransform attributeName="transform" type="translate" keyTimes="0;1" values="-100 55.84956866663195;1440 55.84956866663195" dur="33.333333333333336s" repeatCount="indefinite" begin="-1.7822721343186891s"/>
    <path d="M59.302 23.518c.554-1.752.83-3.597.83-5.441C60.132 8.116 52.016 0 42.055 0 35.14 0 29.144 3.874 26.1 9.591c-1.107-.368-2.398-.553-3.596-.553-6.64 0-11.99 5.35-11.99 11.99 0 .83.092 1.66.276 2.398C4.704 24.348 0 29.695 0 36.06c0 7.102 5.718 12.82 12.82 12.82h44.36c7.102 0 12.82-5.718 12.82-12.82-.092-6.27-4.703-11.528-10.698-12.542z" fill="#fff"/>
  </g>
  <g transform="translate(-100 587.279)">
    <animateTransform attributeName="transform" type="translate" keyTimes="0;1" values="-100 587.2788640235923;1440 587.2788640235923" dur="33.333333333333336s" repeatCount="indefinite" begin="-28.48523638533034s"/>
    <path d="M59.302 23.518c.554-1.752.83-3.597.83-5.441C60.132 8.116 52.016 0 42.055 0 35.14 0 29.144 3.874 26.1 9.591c-1.107-.368-2.398-.553-3.596-.553-6.64 0-11.99 5.35-11.99 11.99 0 .83.092 1.66.276 2.398C4.704 24.348 0 29.695 0 36.06c0 7.102 5.718 12.82 12.82 12.82h44.36c7.102 0 12.82-5.718 12.82-12.82-.092-6.27-4.703-11.528-10.698-12.542z" fill="#fff"/>
  </g>
  <g transform="translate(-100 725.732)">
    <animateTransform attributeName="transform" type="translate" keyTimes="0;1" values="-100 725.7316800236581;1440 725.7316800236581" dur="33.333333333333336s" repeatCount="indefinite" begin="-18.69405537477318s"/>
    <path d="M59.302 23.518c.554-1.752.83-3.597.83-5.441C60.132 8.116 52.016 0 42.055 0 35.14 0 29.144 3.874 26.1 9.591c-1.107-.368-2.398-.553-3.596-.553-6.64 0-11.99 5.35-11.99 11.99 0 .83.092 1.66.276 2.398C4.704 24.348 0 29.695 0 36.06c0 7.102 5.718 12.82 12.82 12.82h44.36c7.102 0 12.82-5.718 12.82-12.82-.092-6.27-4.703-11.528-10.698-12.542z" fill="#fff"/>
  </g>
  <g transform="translate(-100 738.448)">
    <animateTransform attributeName="transform" type="translate" keyTimes="0;1" values="-100 738.4478827523033;1440 738.4478827523033" dur="33.333333333333336s" repeatCount="indefinite" begin="-66.55080287171509s"/>
    <path d="M59.302 23.518c.554-1.752.83-3.597.83-5.441C60.132 8.116 52.016 0 42.055 0 35.14 0 29.144 3.874 26.1 9.591c-1.107-.368-2.398-.553-3.596-.553-6.64 0-11.99 5.35-11.99 11.99 0 .83.092 1.66.276 2.398C4.704 24.348 0 29.695 0 36.06c0 7.102 5.718 12.82 12.82 12.82h44.36c7.102 0 12.82-5.718 12.82-12.82-.092-6.27-4.703-11.528-10.698-12.542z" fill="#fff"/>
  </g>
  <g transform="translate(-100 146.726)">
    <animateTransform attributeName="transform" type="translate" keyTimes="0;1" values="-100 146.72574721274984;1440 146.72574721274984" dur="33.333333333333336s" repeatCount="indefinite" begin="-47.71954126847888s"/>
    <path d="M59.302 23.518c.554-1.752.83-3.597.83-5.441C60.132 8.116 52.016 0 42.055 0 35.14 0 29.144 3.874 26.1 9.591c-1.107-.368-2.398-.553-3.596-.553-6.64 0-11.99 5.35-11.99 11.99 0 .83.092 1.66.276 2.398C4.704 24.348 0 29.695 0 36.06c0 7.102 5.718 12.82 12.82 12.82h44.36c7.102 0 12.82-5.718 12.82-12.82-.092-6.27-4.703-11.528-10.698-12.542z" fill="#fff"/>
  </g>
  <g transform="translate(-100 450.15)">
    <animateTransform attributeName="transform" type="translate" keyTimes="0;1" values="-100 450.15022951196596;1440 450.15022951196596" dur="33.333333333333336s" repeatCount="indefinite" begin="-44.26628062993555s"/>
    <path d="M59.302 23.518c.554-1.752.83-3.597.83-5.441C60.132 8.116 52.016 0 42.055 0 35.14 0 29.144 3.874 26.1 9.591c-1.107-.368-2.398-.553-3.596-.553-6.64 0-11.99 5.35-11.99 11.99 0 .83.092 1.66.276 2.398C4.704 24.348 0 29.695 0 36.06c0 7.102 5.718 12.82 12.82 12.82h44.36c7.102 0 12.82-5.718 12.82-12.82-.092-6.27-4.703-11.528-10.698-12.542z" fill="#fff"/>
  </g>
  <g transform="translate(-100 628.925)">
    <animateTransform attributeName="transform" type="translate" keyTimes="0;1" values="-100 628.9251485952544;1440 628.9251485952544" dur="33.333333333333336s" repeatCount="indefinite" begin="-6.0213650425635645s"/>
    <path d="M59.302 23.518c.554-1.752.83-3.597.83-5.441C60.132 8.116 52.016 0 42.055 0 35.14 0 29.144 3.874 26.1 9.591c-1.107-.368-2.398-.553-3.596-.553-6.64 0-11.99 5.35-11.99 11.99 0 .83.092 1.66.276 2.398C4.704 24.348 0 29.695 0 36.06c0 7.102 5.718 12.82 12.82 12.82h44.36c7.102 0 12.82-5.718 12.82-12.82-.092-6.27-4.703-11.528-10.698-12.542z" fill="#fff"/>
  </g>
  <g transform="translate(-100 27.506)">
    <animateTransform attributeName="transform" type="translate" keyTimes="0;1" values="-100 27.505957847819744;1440 27.505957847819744" dur="22.222222222222225s" repeatCount="indefinite" begin="-54.63630998400505s"/>
    <path d="M72.01 28.557a21.974 21.974 0 0 0 1.008-6.607C73.018 9.855 63.162 0 51.068 0c-8.4 0-15.68 4.704-19.375 11.647-1.344-.448-2.912-.673-4.367-.673a14.53 14.53 0 0 0-14.559 14.56c0 1.007.112 2.015.336 2.911C5.71 29.565 0 36.06 0 43.788a15.534 15.534 0 0 0 15.567 15.567h53.867A15.534 15.534 0 0 0 85 43.788c-.112-7.615-5.711-13.999-12.99-15.23z" fill="#f1f2f3"/>
  </g>
  <g transform="translate(-100 307.046)">
    <animateTransform attributeName="transform" type="translate" keyTimes="0;1" values="-100 307.0456756176422;1440 307.0456756176422" dur="22.222222222222225s" repeatCount="indefinite" begin="-50.70371713619782s"/>
    <path d="M72.01 28.557a21.974 21.974 0 0 0 1.008-6.607C73.018 9.855 63.162 0 51.068 0c-8.4 0-15.68 4.704-19.375 11.647-1.344-.448-2.912-.673-4.367-.673a14.53 14.53 0 0 0-14.559 14.56c0 1.007.112 2.015.336 2.911C5.71 29.565 0 36.06 0 43.788a15.534 15.534 0 0 0 15.567 15.567h53.867A15.534 15.534 0 0 0 85 43.788c-.112-7.615-5.711-13.999-12.99-15.23z" fill="#f1f2f3"/>
  </g>
  <g transform="translate(-100 220.048)">
    <animateTransform attributeName="transform" type="translate" keyTimes="0;1" values="-100 220.04814496061556;1440 220.04814496061556" dur="22.222222222222225s" repeatCount="indefinite" begin="-18.58167944022143s"/>
    <path d="M72.01 28.557a21.974 21.974 0 0 0 1.008-6.607C73.018 9.855 63.162 0 51.068 0c-8.4 0-15.68 4.704-19.375 11.647-1.344-.448-2.912-.673-4.367-.673a14.53 14.53 0 0 0-14.559 14.56c0 1.007.112 2.015.336 2.911C5.71 29.565 0 36.06 0 43.788a15.534 15.534 0 0 0 15.567 15.567h53.867A15.534 15.534 0 0 0 85 43.788c-.112-7.615-5.711-13.999-12.99-15.23z" fill="#f1f2f3"/>
  </g>
  <g transform="translate(-100 345.89)">
    <animateTransform attributeName="transform" type="translate" keyTimes="0;1" values="-100 345.8893249810378;1440 345.8893249810378" dur="22.222222222222225s" repeatCount="indefinite" begin="-1.0830996712400065s"/>
    <path d="M72.01 28.557a21.974 21.974 0 0 0 1.008-6.607C73.018 9.855 63.162 0 51.068 0c-8.4 0-15.68 4.704-19.375 11.647-1.344-.448-2.912-.673-4.367-.673a14.53 14.53 0 0 0-14.559 14.56c0 1.007.112 2.015.336 2.911C5.71 29.565 0 36.06 0 43.788a15.534 15.534 0 0 0 15.567 15.567h53.867A15.534 15.534 0 0 0 85 43.788c-.112-7.615-5.711-13.999-12.99-15.23z" fill="#f1f2f3"/>
  </g>
  <g transform="translate(-100 121.158)">
    <animateTransform attributeName="transform" type="translate" keyTimes="0;1" values="-100 121.15783579566337;1440 121.15783579566337" dur="22.222222222222225s" repeatCount="indefinite" begin="-64.40513625473872s"/>
    <path d="M72.01 28.557a21.974 21.974 0 0 0 1.008-6.607C73.018 9.855 63.162 0 51.068 0c-8.4 0-15.68 4.704-19.375 11.647-1.344-.448-2.912-.673-4.367-.673a14.53 14.53 0 0 0-14.559 14.56c0 1.007.112 2.015.336 2.911C5.71 29.565 0 36.06 0 43.788a15.534 15.534 0 0 0 15.567 15.567h53.867A15.534 15.534 0 0 0 85 43.788c-.112-7.615-5.711-13.999-12.99-15.23z" fill="#f1f2f3"/>
  </g>
  <g transform="translate(-100 381.94)">
    <animateTransform attributeName="transform" type="translate" keyTimes="0;1" values="-100 381.9393190392873;1440 381.9393190392873" dur="22.222222222222225s" repeatCount="indefinite" begin="-42.87627065743633s"/>
    <path d="M72.01 28.557a21.974 21.974 0 0 0 1.008-6.607C73.018 9.855 63.162 0 51.068 0c-8.4 0-15.68 4.704-19.375 11.647-1.344-.448-2.912-.673-4.367-.673a14.53 14.53 0 0 0-14.559 14.56c0 1.007.112 2.015.336 2.911C5.71 29.565 0 36.06 0 43.788a15.534 15.534 0 0 0 15.567 15.567h53.867A15.534 15.534 0 0 0 85 43.788c-.112-7.615-5.711-13.999-12.99-15.23z" fill="#f1f2f3"/>
  </g>
  <g transform="translate(-100 686.167)">
    <animateTransform attributeName="transform" type="translate" keyTimes="0;1" values="-100 686.1673943599974;1440 686.1673943599974" dur="22.222222222222225s" repeatCount="indefinite" begin="-40.377210739690035s"/>
    <path d="M72.01 28.557a21.974 21.974 0 0 0 1.008-6.607C73.018 9.855 63.162 0 51.068 0c-8.4 0-15.68 4.704-19.375 11.647-1.344-.448-2.912-.673-4.367-.673a14.53 14.53 0 0 0-14.559 14.56c0 1.007.112 2.015.336 2.911C5.71 29.565 0 36.06 0 43.788a15.534 15.534 0 0 0 15.567 15.567h53.867A15.534 15.534 0 0 0 85 43.788c-.112-7.615-5.711-13.999-12.99-15.23z" fill="#f1f2f3"/>
  </g>
  <g transform="translate(-100 307.091)">
    <animateTransform attributeName="transform" type="translate" keyTimes="0;1" values="-100 307.0914689359777;1440 307.0914689359777" dur="22.222222222222225s" repeatCount="indefinite" begin="-1.7819487797360387s"/>
    <path d="M72.01 28.557a21.974 21.974 0 0 0 1.008-6.607C73.018 9.855 63.162 0 51.068 0c-8.4 0-15.68 4.704-19.375 11.647-1.344-.448-2.912-.673-4.367-.673a14.53 14.53 0 0 0-14.559 14.56c0 1.007.112 2.015.336 2.911C5.71 29.565 0 36.06 0 43.788a15.534 15.534 0 0 0 15.567 15.567h53.867A15.534 15.534 0 0 0 85 43.788c-.112-7.615-5.711-13.999-12.99-15.23z" fill="#f1f2f3"/>
  </g>
  <g transform="translate(-100 510.239)">
    <animateTransform attributeName="transform" type="translate" keyTimes="0;1" values="-100 510.2385584454561;1440 510.2385584454561" dur="22.222222222222225s" repeatCount="indefinite" begin="-62.69241096249912s"/>
    <path d="M72.01 28.557a21.974 21.974 0 0 0 1.008-6.607C73.018 9.855 63.162 0 51.068 0c-8.4 0-15.68 4.704-19.375 11.647-1.344-.448-2.912-.673-4.367-.673a14.53 14.53 0 0 0-14.559 14.56c0 1.007.112 2.015.336 2.911C5.71 29.565 0 36.06 0 43.788a15.534 15.534 0 0 0 15.567 15.567h53.867A15.534 15.534 0 0 0 85 43.788c-.112-7.615-5.711-13.999-12.99-15.23z" fill="#f1f2f3"/>
  </g>
  <g transform="translate(-100 275.943)">
    <animateTransform attributeName="transform" type="translate" keyTimes="0;1" values="-100 275.9434576044651;1440 275.9434576044651" dur="22.222222222222225s" repeatCount="indefinite" begin="-24.666280418008085s"/>
    <path d="M72.01 28.557a21.974 21.974 0 0 0 1.008-6.607C73.018 9.855 63.162 0 51.068 0c-8.4 0-15.68 4.704-19.375 11.647-1.344-.448-2.912-.673-4.367-.673a14.53 14.53 0 0 0-14.559 14.56c0 1.007.112 2.015.336 2.911C5.71 29.565 0 36.06 0 43.788a15.534 15.534 0 0 0 15.567 15.567h53.867A15.534 15.534 0 0 0 85 43.788c-.112-7.615-5.711-13.999-12.99-15.23z" fill="#f1f2f3"/>
  </g>
  <g transform="translate(-100 206.37)">
    <animateTransform attributeName="transform" type="translate" keyTimes="0;1" values="-100 206.37011238613167;1440 206.37011238613167" dur="22.222222222222225s" repeatCount="indefinite" begin="-27.00726580478814s"/>
    <path d="M72.01 28.557a21.974 21.974 0 0 0 1.008-6.607C73.018 9.855 63.162 0 51.068 0c-8.4 0-15.68 4.704-19.375 11.647-1.344-.448-2.912-.673-4.367-.673a14.53 14.53 0 0 0-14.559 14.56c0 1.007.112 2.015.336 2.911C5.71 29.565 0 36.06 0 43.788a15.534 15.534 0 0 0 15.567 15.567h53.867A15.534 15.534 0 0 0 85 43.788c-.112-7.615-5.711-13.999-12.99-15.23z" fill="#f1f2f3"/>
  </g>
  <g transform="translate(-100 325.993)">
    <animateTransform attributeName="transform" type="translate" keyTimes="0;1" values="-100 325.993442629645;1440 325.993442629645" dur="16.666666666666668s" repeatCount="indefinite" begin="-6.222459861228987s"/>
    <path d="M84.717 33.597a25.851 25.851 0 0 0 1.186-7.773C85.903 11.594 74.308 0 60.079 0c-9.881 0-18.445 5.534-22.793 13.702-1.581-.527-3.426-.791-5.138-.791A17.094 17.094 0 0 0 15.02 30.039c0 1.186.132 2.372.395 3.426C6.719 34.783 0 42.424 0 51.515a18.275 18.275 0 0 0 18.314 18.314h63.373A18.275 18.275 0 0 0 100 51.515c-.132-8.959-6.719-16.469-15.283-17.918z" fill="#bddeff"/>
  </g>
  <g transform="translate(-100 276.26)">
    <animateTransform attributeName="transform" type="translate" keyTimes="0;1" values="-100 276.260788698639;1440 276.260788698639" dur="16.666666666666668s" repeatCount="indefinite" begin="-15.27564715906591s"/>
    <path d="M84.717 33.597a25.851 25.851 0 0 0 1.186-7.773C85.903 11.594 74.308 0 60.079 0c-9.881 0-18.445 5.534-22.793 13.702-1.581-.527-3.426-.791-5.138-.791A17.094 17.094 0 0 0 15.02 30.039c0 1.186.132 2.372.395 3.426C6.719 34.783 0 42.424 0 51.515a18.275 18.275 0 0 0 18.314 18.314h63.373A18.275 18.275 0 0 0 100 51.515c-.132-8.959-6.719-16.469-15.283-17.918z" fill="#bddeff"/>
  </g>
  <g transform="translate(-100 439.279)">
    <animateTransform attributeName="transform" type="translate" keyTimes="0;1" values="-100 439.278914000577;1440 439.278914000577" dur="16.666666666666668s" repeatCount="indefinite" begin="-21.9478232646512s"/>
    <path d="M84.717 33.597a25.851 25.851 0 0 0 1.186-7.773C85.903 11.594 74.308 0 60.079 0c-9.881 0-18.445 5.534-22.793 13.702-1.581-.527-3.426-.791-5.138-.791A17.094 17.094 0 0 0 15.02 30.039c0 1.186.132 2.372.395 3.426C6.719 34.783 0 42.424 0 51.515a18.275 18.275 0 0 0 18.314 18.314h63.373A18.275 18.275 0 0 0 100 51.515c-.132-8.959-6.719-16.469-15.283-17.918z" fill="#bddeff"/>
  </g>
  <g transform="translate(-100 465.24)">
    <animateTransform attributeName="transform" type="translate" keyTimes="0;1" values="-100 465.23952516025594;1440 465.23952516025594" dur="16.666666666666668s" repeatCount="indefinite" begin="-49.620357236598736s"/>
    <path d="M84.717 33.597a25.851 25.851 0 0 0 1.186-7.773C85.903 11.594 74.308 0 60.079 0c-9.881 0-18.445 5.534-22.793 13.702-1.581-.527-3.426-.791-5.138-.791A17.094 17.094 0 0 0 15.02 30.039c0 1.186.132 2.372.395 3.426C6.719 34.783 0 42.424 0 51.515a18.275 18.275 0 0 0 18.314 18.314h63.373A18.275 18.275 0 0 0 100 51.515c-.132-8.959-6.719-16.469-15.283-17.918z" fill="#bddeff"/>
  </g>
  <g transform="translate(-100 524.954)">
    <animateTransform attributeName="transform" type="translate" keyTimes="0;1" values="-100 524.9538471872196;1440 524.9538471872196" dur="16.666666666666668s" repeatCount="indefinite" begin="-33.94231664242236s"/>
    <path d="M84.717 33.597a25.851 25.851 0 0 0 1.186-7.773C85.903 11.594 74.308 0 60.079 0c-9.881 0-18.445 5.534-22.793 13.702-1.581-.527-3.426-.791-5.138-.791A17.094 17.094 0 0 0 15.02 30.039c0 1.186.132 2.372.395 3.426C6.719 34.783 0 42.424 0 51.515a18.275 18.275 0 0 0 18.314 18.314h63.373A18.275 18.275 0 0 0 100 51.515c-.132-8.959-6.719-16.469-15.283-17.918z" fill="#bddeff"/>
  </g>
  <g transform="translate(-100 479.29)">
    <animateTransform attributeName="transform" type="translate" keyTimes="0;1" values="-100 479.289901275552;1440 479.289901275552" dur="16.666666666666668s" repeatCount="indefinite" begin="-29.478153191869538s"/>
    <path d="M84.717 33.597a25.851 25.851 0 0 0 1.186-7.773C85.903 11.594 74.308 0 60.079 0c-9.881 0-18.445 5.534-22.793 13.702-1.581-.527-3.426-.791-5.138-.791A17.094 17.094 0 0 0 15.02 30.039c0 1.186.132 2.372.395 3.426C6.719 34.783 0 42.424 0 51.515a18.275 18.275 0 0 0 18.314 18.314h63.373A18.275 18.275 0 0 0 100 51.515c-.132-8.959-6.719-16.469-15.283-17.918z" fill="#bddeff"/>
  </g>
  <g transform="translate(-100 114.625)">
    <animateTransform attributeName="transform" type="translate" keyTimes="0;1" values="-100 114.62546820094184;1440 114.62546820094184" dur="16.666666666666668s" repeatCount="indefinite" begin="-13.595714297234267s"/>
    <path d="M84.717 33.597a25.851 25.851 0 0 0 1.186-7.773C85.903 11.594 74.308 0 60.079 0c-9.881 0-18.445 5.534-22.793 13.702-1.581-.527-3.426-.791-5.138-.791A17.094 17.094 0 0 0 15.02 30.039c0 1.186.132 2.372.395 3.426C6.719 34.783 0 42.424 0 51.515a18.275 18.275 0 0 0 18.314 18.314h63.373A18.275 18.275 0 0 0 100 51.515c-.132-8.959-6.719-16.469-15.283-17.918z" fill="#bddeff"/>
  </g>
  <g transform="translate(-100 63.01)">
    <animateTransform attributeName="transform" type="translate" keyTimes="0;1" values="-100 63.01057642716577;1440 63.01057642716577" dur="16.666666666666668s" repeatCount="indefinite" begin="-63.2808253935562s"/>
    <path d="M84.717 33.597a25.851 25.851 0 0 0 1.186-7.773C85.903 11.594 74.308 0 60.079 0c-9.881 0-18.445 5.534-22.793 13.702-1.581-.527-3.426-.791-5.138-.791A17.094 17.094 0 0 0 15.02 30.039c0 1.186.132 2.372.395 3.426C6.719 34.783 0 42.424 0 51.515a18.275 18.275 0 0 0 18.314 18.314h63.373A18.275 18.275 0 0 0 100 51.515c-.132-8.959-6.719-16.469-15.283-17.918z" fill="#bddeff"/>
  </g>
  <g transform="translate(-100 48.736)">
    <animateTransform attributeName="transform" type="translate" keyTimes="0;1" values="-100 48.73596878492908;1440 48.73596878492908" dur="16.666666666666668s" repeatCount="indefinite" begin="-10.826575333505433s"/>
    <path d="M84.717 33.597a25.851 25.851 0 0 0 1.186-7.773C85.903 11.594 74.308 0 60.079 0c-9.881 0-18.445 5.534-22.793 13.702-1.581-.527-3.426-.791-5.138-.791A17.094 17.094 0 0 0 15.02 30.039c0 1.186.132 2.372.395 3.426C6.719 34.783 0 42.424 0 51.515a18.275 18.275 0 0 0 18.314 18.314h63.373A18.275 18.275 0 0 0 100 51.515c-.132-8.959-6.719-16.469-15.283-17.918z" fill="#bddeff"/>
  </g>
  <g transform="translate(-100 723.626)">
    <animateTransform attributeName="transform" type="translate" keyTimes="0;1" values="-100 723.6258644617357;1440 723.6258644617357" dur="16.666666666666668s" repeatCount="indefinite" begin="-19.912474629629465s"/>
    <path d="M84.717 33.597a25.851 25.851 0 0 0 1.186-7.773C85.903 11.594 74.308 0 60.079 0c-9.881 0-18.445 5.534-22.793 13.702-1.581-.527-3.426-.791-5.138-.791A17.094 17.094 0 0 0 15.02 30.039c0 1.186.132 2.372.395 3.426C6.719 34.783 0 42.424 0 51.515a18.275 18.275 0 0 0 18.314 18.314h63.373A18.275 18.275 0 0 0 100 51.515c-.132-8.959-6.719-16.469-15.283-17.918z" fill="#bddeff"/>
  </g>
  <g transform="translate(-100 692.828)">
    <animateTransform attributeName="transform" type="translate" keyTimes="0;1" values="-100 692.828432694139;1440 692.828432694139" dur="16.666666666666668s" repeatCount="indefinite" begin="-40.778941703705165s"/>
    <path d="M84.717 33.597a25.851 25.851 0 0 0 1.186-7.773C85.903 11.594 74.308 0 60.079 0c-9.881 0-18.445 5.534-22.793 13.702-1.581-.527-3.426-.791-5.138-.791A17.094 17.094 0 0 0 15.02 30.039c0 1.186.132 2.372.395 3.426C6.719 34.783 0 42.424 0 51.515a18.275 18.275 0 0 0 18.314 18.314h63.373A18.275 18.275 0 0 0 100 51.515c-.132-8.959-6.719-16.469-15.283-17.918z" fill="#bddeff"/>
  </g>
  <g transform="translate(-100 123.07)">
    <animateTransform attributeName="transform" type="translate" keyTimes="0;1" values="-100 123.07088997731012;1440 123.07088997731012" dur="16.666666666666668s" repeatCount="indefinite" begin="-11.96087624708427s"/>
    <path d="M84.717 33.597a25.851 25.851 0 0 0 1.186-7.773C85.903 11.594 74.308 0 60.079 0c-9.881 0-18.445 5.534-22.793 13.702-1.581-.527-3.426-.791-5.138-.791A17.094 17.094 0 0 0 15.02 30.039c0 1.186.132 2.372.395 3.426C6.719 34.783 0 42.424 0 51.515a18.275 18.275 0 0 0 18.314 18.314h63.373A18.275 18.275 0 0 0 100 51.515c-.132-8.959-6.719-16.469-15.283-17.918z" fill="#bddeff"/>
  </g>
</svg>